<?xml version="1.0" encoding="utf-8"?>
<!-- Generator: Adobe Illustrator 16.0.0, SVG Export Plug-In . SVG Version: 6.00 Build 0)  -->
<!DOCTYPE svg PUBLIC "-//W3C//DTD SVG 1.1//EN" "http://www.w3.org/Graphics/SVG/1.1/DTD/svg11.dtd">
<svg version="1.1" id="Layer_1" xmlns="http://www.w3.org/2000/svg" xmlns:xlink="http://www.w3.org/1999/xlink" x="0px" y="0px"
	 width="416.035px" height="569.943px" viewBox="0 0 416.035 569.943" enable-background="new 0 0 416.035 569.943"
	 xml:space="preserve">
<g>
	<path fill-rule="evenodd" clip-rule="evenodd" d="M194.527,328.82c1.959,0,3.757,0,5.556,0c17.163,0,34.325-0.051,51.487,0.018
		c15.375,0.061,26.396,9.146,29.174,24.147c5.118,27.652,10.111,55.328,15.167,82.993c5.863,32.084,11.935,64.133,17.422,96.281
		c1,5.857,0.808,12.465-0.875,18.119c-3.784,12.719-16.851,20.641-29.859,19.447c-13.095-1.203-23.228-10.801-25.63-24.172
		c-9.273-51.592-18.638-103.169-27.734-154.792c-0.712-4.04-2.347-4.666-5.85-4.656c-34.992,0.094-69.99-0.371-104.972,0.233
		c-17.938,0.311-29.862-11.998-32.149-27.12c-6.893-45.585-14.334-91.085-21.173-136.677c-1.542-10.279-2.946-20.939-1.918-31.174
		c2.643-26.295,26.467-47.799,52.874-48.366c9.881-0.212,20.218-0.025,29.626,2.583c23.294,6.457,37.528,26.943,39.253,52.796
		c2.859,42.878,6.057,85.734,9.121,128.599C194.07,327.404,194.216,327.719,194.527,328.82z"/>
	<path fill-rule="evenodd" clip-rule="evenodd" d="M145.659,448.043c-11.825,0.006-23.67-0.436-35.472,0.086
		c-39.26,1.736-79.719-25.371-86.387-75.322C17.044,322.193,8.253,271.854,0.508,221.373c-0.618-4.026-0.788-8.418,0.151-12.323
		c2.164-8.998,10.381-14.626,19.284-14.103c9.189,0.54,17.469,7.789,18.953,17.082c4.436,27.763,8.72,55.551,13.048,83.331
		c4.07,26.136,7.984,52.298,12.223,78.408c3.398,20.937,21.504,35.896,43.457,36.005c27.646,0.138,55.295-0.03,82.942,0.07
		c13.286,0.048,22.028,11.946,18.373,24.673c-2.317,8.063-9.398,13.427-18.312,13.491
		C175.638,448.117,160.648,448.037,145.659,448.043z"/>
	<path fill-rule="evenodd" clip-rule="evenodd" d="M123.879,125.966c-35.073-0.28-63.142-28.608-62.888-63.469
		c0.256-35.043,28.91-62.875,64.344-62.493c34.126,0.367,61.883,29.06,61.621,63.697
		C186.697,98.028,158.117,126.239,123.879,125.966z"/>
	<path fill-rule="evenodd" clip-rule="evenodd" d="M322.654,297.578c-51.382,0.121-93.603-41.958-93.691-93.378
		c-0.09-51.726,42.073-93.969,93.693-93.875c51.52,0.095,93.374,42.06,93.379,93.626
		C416.039,255.508,374.203,297.455,322.654,297.578z M370.242,261.826c-3.852-3.606-7.189-6.609-10.387-9.756
		c-4.871-4.796-5.227-9.273-1.217-13.396c3.809-3.916,8.244-3.628,12.965,1.263c3.301,3.42,6.215,7.214,9.535,11.113
		c10.088-12.358,15.029-24.803,16.912-39.215c-4.992,0-9.621,0.039-14.25-0.01c-6.592-0.068-10.113-3.01-10.156-8.391
		c-0.043-5.422,3.471-8.416,10.002-8.464c4.467-0.032,8.932-0.007,13.752-0.007c-1.771-14.539-7.301-26.865-15.742-37.905
		c-0.59,0.181-0.797,0.183-0.902,0.286c-3.336,3.257-6.629,6.559-9.998,9.782c-4.174,3.994-9.217,4.253-12.881,0.749
		c-3.82-3.652-3.662-8.188,0.883-12.634c3.516-3.442,7.424-6.485,11.264-9.799c-30.949-25.917-71.086-20.249-93.436-0.251
		c3.365,3.243,6.755,6.421,10.047,9.699c4.557,4.538,4.901,9.244,1.062,13.032c-3.664,3.616-8.801,3.223-13.196-1.231
		c-3.261-3.306-6.303-6.827-9.702-10.536c-9.776,11.693-14.7,24.322-16.542,38.275c0.487,0.193,0.794,0.419,1.103,0.423
		c4.497,0.055,8.995,0.062,13.493,0.115c6.096,0.073,9.794,3.13,9.932,8.169c0.143,5.184-3.729,8.596-9.993,8.684
		c-4.776,0.066-9.554,0.014-14.593,0.014c2.024,14.581,7.338,26.979,16.455,38.5c3.602-3.782,6.766-7.209,10.044-10.52
		c4.643-4.686,8.866-4.988,13.011-1.068c3.874,3.666,3.604,8.48-1.073,13.039c-3.417,3.33-7.15,6.336-11.076,9.777
		c12.367,9.772,24.723,15.057,39.265,16.564c0-5.159-0.024-9.637,0.005-14.112c0.045-6.799,2.76-10.124,8.238-10.157
		c5.451-0.033,8.411,3.386,8.524,10.017c0.079,4.614,0.016,9.23,0.016,14.414C346.123,276.277,358.377,270.957,370.242,261.826z"/>
	<path fill-rule="evenodd" clip-rule="evenodd" fill="#FFFFFF" d="M370.242,261.826c-11.865,9.131-24.12,14.451-38.638,16.464
		c0-5.184,0.063-9.8-0.016-14.414c-0.113-6.631-3.073-10.05-8.524-10.017c-5.479,0.033-8.193,3.358-8.238,10.157
		c-0.029,4.476-0.005,8.953-0.005,14.112c-14.542-1.508-26.897-6.792-39.265-16.564c3.926-3.441,7.659-6.447,11.076-9.777
		c4.677-4.559,4.947-9.373,1.073-13.039c-4.145-3.92-8.368-3.617-13.011,1.068c-3.278,3.311-6.442,6.737-10.044,10.52
		c-9.117-11.521-14.431-23.919-16.455-38.5c5.039,0,9.816,0.053,14.593-0.014c6.264-0.088,10.136-3.5,9.993-8.684
		c-0.138-5.039-3.836-8.096-9.932-8.169c-4.498-0.054-8.996-0.061-13.493-0.115c-0.309-0.004-0.615-0.229-1.103-0.423
		c1.842-13.953,6.766-26.583,16.542-38.275c3.399,3.708,6.441,7.229,9.702,10.536c4.396,4.455,9.532,4.847,13.196,1.231
		c3.839-3.788,3.494-8.494-1.062-13.032c-3.292-3.278-6.682-6.456-10.047-9.699c22.35-19.998,62.487-25.667,93.436,0.251
		c-3.84,3.313-7.748,6.357-11.264,9.799c-4.545,4.447-4.703,8.982-0.883,12.634c3.664,3.504,8.707,3.245,12.881-0.749
		c3.369-3.223,6.662-6.524,9.998-9.782c0.105-0.104,0.312-0.105,0.902-0.286c8.441,11.041,13.971,23.366,15.742,37.905
		c-4.82,0-9.285-0.025-13.752,0.007c-6.531,0.048-10.045,3.042-10.002,8.464c0.043,5.381,3.564,8.322,10.156,8.391
		c4.629,0.049,9.258,0.01,14.25,0.01c-1.883,14.412-6.824,26.856-16.912,39.215c-3.32-3.899-6.234-7.693-9.535-11.113
		c-4.721-4.891-9.156-5.179-12.965-1.263c-4.01,4.122-3.654,8.6,1.217,13.396C363.053,255.217,366.391,258.22,370.242,261.826z
		 M330.946,170.386c0-4.83,0-9.658,0-14.487c0-1.499,0.034-2.999-0.01-4.496c-0.163-5.604-3.425-9.231-8.314-9.285
		c-4.854-0.053-8.462,3.593-8.518,9.105c-0.121,12.155,0.111,24.315-0.168,36.465c-0.058,2.506-1.225,5.333-2.728,7.395
		c-4.134,5.665-4.24,13.408,0.262,18.437c4.604,5.144,13.515,6.834,18.527,2.354c3.879-3.466,7.796-3.737,12.296-3.608
		c2.994,0.086,6,0.115,8.99-0.039c5.264-0.271,8.635-3.731,8.49-8.506c-0.139-4.601-3.387-7.826-8.453-8.03
		c-4.488-0.181-8.989-0.031-13.485-0.077c-5.27-0.055-6.855-1.604-6.882-6.744C330.921,182.708,330.946,176.547,330.946,170.386z"/>
	<path fill-rule="evenodd" clip-rule="evenodd" d="M330.946,170.386c0,6.161-0.024,12.323,0.008,18.484
		c0.026,5.139,1.612,6.689,6.882,6.744c4.496,0.046,8.997-0.104,13.485,0.077c5.066,0.204,8.314,3.429,8.453,8.03
		c0.145,4.774-3.227,8.234-8.49,8.506c-2.99,0.154-5.996,0.125-8.99,0.039c-4.5-0.129-8.417,0.143-12.296,3.608
		c-5.013,4.479-13.924,2.789-18.527-2.354c-4.502-5.028-4.396-12.771-0.262-18.437c1.503-2.062,2.67-4.888,2.728-7.395
		c0.279-12.15,0.047-24.311,0.168-36.465c0.056-5.512,3.664-9.158,8.518-9.105c4.89,0.054,8.151,3.681,8.314,9.285
		c0.044,1.497,0.01,2.997,0.01,4.496C330.946,160.728,330.946,165.556,330.946,170.386z"/>
</g>
</svg>
