<?xml version="1.0" encoding="utf-8"?>
<!-- Generator: Adobe Illustrator 16.0.0, SVG Export Plug-In . SVG Version: 6.00 Build 0)  -->
<!DOCTYPE svg PUBLIC "-//W3C//DTD SVG 1.1//EN" "http://www.w3.org/Graphics/SVG/1.1/DTD/svg11.dtd">
<svg version="1.1" id="Layer_1" xmlns="http://www.w3.org/2000/svg" xmlns:xlink="http://www.w3.org/1999/xlink" x="0px" y="0px"
	 width="570.165px" height="282.036px" viewBox="0 0 570.165 282.036" enable-background="new 0 0 570.165 282.036"
	 xml:space="preserve">
<g>
	<path fill-rule="evenodd" clip-rule="evenodd" d="M90.583,282.024c-23.33-0.001-46.661,0.035-69.991-0.015
		c-13.558-0.028-22.342-9.811-20.298-23.116c3.664-23.854,7.399-47.705,11.639-71.462c4.81-26.954,25.232-46.072,52.751-47.819
		c18.894-1.2,38.048-1.092,56.901,0.549c25.424,2.213,45.797,23.205,49.471,48.412c3.313,22.733,6.601,45.471,9.867,68.211
		c2.326,16.193-5.518,25.235-21.85,25.239C136.245,282.029,113.414,282.024,90.583,282.024z"/>
	<path fill-rule="evenodd" clip-rule="evenodd" d="M479.763,282.024c-23.148,0-46.296,0.027-69.444-0.011
		c-14.356-0.023-22.601-9.855-20.506-24.17c3.373-23.045,6.355-46.151,10.065-69.142c4.45-27.576,24.624-47.061,52.618-49.032
		c19.028-1.339,38.348-1.124,57.357,0.503c24.976,2.137,45.292,22.788,49.168,47.49c3.686,23.5,7.288,47.015,10.84,70.537
		c2.075,13.737-6.668,23.788-20.654,23.812C526.059,282.053,502.911,282.024,479.763,282.024z"/>
	<path fill-rule="evenodd" clip-rule="evenodd" d="M427.227,59.382c-0.747-11.931,1.133-24.543,8.689-35.882
		c12.241-18.368,34.579-27.238,55.761-22.02c21.659,5.335,37.854,23.338,39.421,45.497c0.803,11.357,1.022,23.152-1.126,34.241
		c-4.901,25.301-29.292,42.831-54.119,40.552c-27.23-2.5-47.704-23.783-48.609-50.584C427.125,67.693,427.227,64.194,427.227,59.382
		z"/>
	<path fill-rule="evenodd" clip-rule="evenodd" d="M143.896,61.026c-1.123,8.034-1.294,16.347-3.543,24.052
		c-6.96,23.838-31.199,39.608-54.812,36.497c-27.269-3.595-46.177-23.892-46.955-51.065c-0.275-9.619-0.539-19.509,1.29-28.866
		c5.103-26.12,28.81-43.476,55.031-41.458c26.16,2.013,46.579,23.355,47.97,50.217c0.181,3.489,0.025,6.996,0.025,10.495
		C143.233,60.94,143.564,60.983,143.896,61.026z"/>
	<path fill-rule="evenodd" clip-rule="evenodd" d="M300.67,175.851c-3.254-4.292-6.394-7.805-8.733-11.788
		c-1.182-2.011-1.918-5.363-1.017-7.213c0.9-1.851,4.092-3.635,6.283-3.642c20.985-0.061,41.972,0.203,62.956,0.511
		c5.924,0.088,8.426,3.705,6.798,9.886c-2.073,7.876-4.506,15.657-6.761,23.485c-3.405,11.823-6.577,23.719-10.351,35.423
		c-0.827,2.565-3.462,5.672-5.834,6.271c-2.01,0.508-5.309-1.782-7.205-3.67c-2.91-2.9-5.108-6.519-6.945-8.953
		c-10.697,3.563-20.621,8.001-31.02,10.138c-41.265,8.48-84.695-18.898-95.347-59.463c-1.011-3.847-1.638-7.744,2.886-9.95
		c4.325-2.11,6.724,0.708,9.16,3.697c19.515,23.948,51.857,31.41,79.341,18.345C296.66,178.082,298.366,177.08,300.67,175.851z"/>
	<path fill-rule="evenodd" clip-rule="evenodd" d="M241.324,67.156C252.994,60,265.316,56.03,278.61,54.56
		c38.722-4.286,78.719,23.27,88.179,61.054c0.931,3.716,1.335,7.415-2.9,9.527c-4.293,2.139-6.742-0.55-9.197-3.57
		c-19.505-23.998-51.823-31.51-79.311-18.481c-1.781,0.845-3.497,1.829-5.816,3.051c2.991,3.996,6.064,7.46,8.335,11.388
		c1.26,2.18,2.384,5.825,1.39,7.563c-1.159,2.026-4.693,3.767-7.204,3.777c-20.487,0.083-40.975-0.229-61.462-0.509
		c-6.415-0.088-9.164-3.526-7.407-9.794c5.655-20.172,11.446-40.309,17.511-60.361c0.635-2.098,3.248-4.609,5.296-4.983
		c2.032-0.37,5.068,1.184,6.678,2.847C235.902,59.376,238.426,63.339,241.324,67.156z"/>
</g>
</svg>
