<?xml version="1.0" encoding="utf-8"?>
<!-- Generator: Adobe Illustrator 16.0.0, SVG Export Plug-In . SVG Version: 6.00 Build 0)  -->
<!DOCTYPE svg PUBLIC "-//W3C//DTD SVG 1.1//EN" "http://www.w3.org/Graphics/SVG/1.1/DTD/svg11.dtd">
<svg version="1.1" xmlns="http://www.w3.org/2000/svg" xmlns:xlink="http://www.w3.org/1999/xlink" x="0px" y="0px"
	 width="569.909px" height="464.781px" viewBox="0 0 569.909 464.781" enable-background="new 0 0 569.909 464.781"
	 xml:space="preserve">
<g id="Layer_1">
	<g>
		<path fill-rule="evenodd" clip-rule="evenodd" d="M122.333,334.693c-10.652,28.891-21.009,56.972-31.357,85.056
			c-3.393,9.208-6.703,18.445-10.153,27.631c-5.299,14.106-19.047,20.729-32.54,15.763c-13.862-5.104-20.244-19.011-15.021-33.354
			c15.82-43.444,31.703-86.864,47.726-130.231c1.409-3.812,1.122-6.294-2.031-8.977c-13.933-11.854-19.236-26.665-14.937-44.712
			c3.277-13.754,6.363-27.554,9.51-41.339c1.806-7.91,3.566-15.831,5.436-24.142c-7.33,3.269-12.223,8.26-15.662,14.82
			c-7.415,14.148-14.86,28.282-22.327,42.404c-5.946,11.248-18.635,15.729-29.139,10.343c-10.796-5.537-15.032-18.739-9.241-30.021
			c8.131-15.838,16.468-31.572,24.916-47.244c5.235-9.712,12.523-17.806,22.065-23.338c15.83-9.175,32.08-17.625,47.932-26.764
			c11.362-6.551,23.396-6.593,35.813-5.282c7.119,0.75,14.273,1.359,21.425,1.558c6.738,0.187,12.57,2.456,16.963,7.293
			c7.487,8.246,14.738,16.733,21.636,25.477c5.77,7.312,10.61,15.361,16.448,22.612c2.175,2.702,5.799,5.208,9.132,5.835
			c13.076,2.458,26.29,4.204,39.473,6.072c11.625,1.648,19.077,7.653,21.641,17.738c3.648,14.346-8.452,28.528-23.182,26.658
			c-16.013-2.032-31.98-4.473-47.917-7.052c-14.99-2.426-26.307-10.648-34.678-23.148c-1.11-1.657-2.289-3.27-3.48-4.87
			c-0.152-0.204-0.579-0.205-1.385-0.461c-2.867,8.958-5.729,17.913-8.599,26.866c-6.143,19.163-12.221,38.346-18.499,57.464
			c-1.053,3.208-0.77,5.292,1.803,7.76c11.659,11.189,22.958,22.755,34.619,33.942c7.523,7.218,12.719,15.777,16.11,25.499
			c9.916,28.421,19.774,56.863,29.608,85.313c4.95,14.318-1.147,28.382-14.141,32.849c-14.431,4.96-28.564-1.809-33.723-16.419
			c-9.969-28.227-19.775-56.51-29.687-84.757c-0.539-1.537-1.111-3.258-2.2-4.375C137.502,349.772,130.167,342.529,122.333,334.693z
			"/>
		<path fill-rule="evenodd" clip-rule="evenodd" d="M545.889,168.941c2.471,0.725,4.684,1.416,6.919,2.021
			c11.866,3.21,18.649,12.68,16.8,23.489c-1.864,10.896-10.685,17.165-23.719,16.383c0,1.803,0,3.575,0,5.347
			c0,27.323,0.002,54.646-0.001,81.968c-0.001,9.674-2.297,11.923-12.153,11.925c-13.799,0.003-27.598,0.001-41.79,0.001
			c1.462,12.341,2.83,24.197,4.275,36.046c3.789,31.065,7.672,62.119,11.392,93.192c1.403,11.716-7.755,23.349-19.158,24.753
			c-12.918,1.593-24.854-7.031-26.451-19.537c-5.146-40.29-10.121-80.601-15.176-120.9c-0.555-4.422-1.207-8.831-1.83-13.368
			c-2.838,0-5.297,0-8.269,0c-1.274,9.586-2.553,19.106-3.805,28.63c-4.6,34.986-9.074,69.99-13.843,104.953
			c-1.759,12.888-13.129,21.339-25.643,19.752c-12.276-1.559-21.097-12.362-19.628-25.173c2.959-25.798,6.397-51.539,9.641-77.303
			c2.119-16.829,4.245-33.657,6.438-51.045c-9.738,0-19.199,0-28.661,0c-4.997,0-9.996,0.025-14.994-0.007
			c-7.467-0.047-10.3-2.821-10.307-10.24c-0.025-27.823-0.011-55.646-0.011-83.468c0-1.65,0-3.3,0-5.39
			c-7.046,0.466-13.732-0.601-18.233-6.059c-2.623-3.181-4.797-7.414-5.345-11.424c-0.525-3.842,0.433-8.505,2.352-11.892
			c2.004-3.537,5.562-6.605,9.125-8.728c3.467-2.066,7.803-2.676,12.099-4.033c0-7.626-0.021-15.267,0.006-22.908
			c0.028-7.694,2.781-10.446,10.615-10.497c8.829-0.058,17.664-0.179,26.488,0.061c3.873,0.105,6.262-0.933,8.405-4.463
			c3.263-5.372,7.163-10.432,11.314-15.166c4.831-5.509,11.155-8.007,18.664-7.942c19.49,0.167,38.986,0.221,58.476-0.021
			c8.485-0.105,15.375,2.826,20.613,9.247c3.88,4.755,7.36,9.869,10.661,15.051c1.545,2.425,3.212,3.318,6.019,3.274
			c9.328-0.147,18.659-0.095,27.989-0.041c8.044,0.046,10.702,2.788,10.722,10.916C545.902,153.829,545.889,161.314,545.889,168.941
			z M353.058,292.844c58.827,0,117.211,0,175.679,0c0-46.923,0-93.501,0-140.355c-58.648,0-117.028,0-175.679,0
			C353.058,199.343,353.058,245.92,353.058,292.844z"/>
		<path fill-rule="evenodd" clip-rule="evenodd" d="M144.024,103.359c-27.009-0.12-48.451-21.74-48.3-48.7
			c0.15-26.908,21.937-48.584,48.693-48.449c26.74,0.136,48.549,22.124,48.435,48.834
			C192.739,81.851,170.881,103.479,144.024,103.359z"/>
		<path fill-rule="evenodd" clip-rule="evenodd" d="M440.932,0c26.575,0.011,47.968,21.393,47.961,47.938
			c-0.008,26.417-21.646,48.05-48.034,48.023c-26.409-0.026-47.958-21.643-47.947-48.097C392.922,21.329,414.329-0.01,440.932,0z"/>
		<path fill-rule="evenodd" clip-rule="evenodd" fill="#FFFFFF" d="M353.058,292.844c0-46.923,0-93.5,0-140.355
			c58.65,0,117.03,0,175.679,0c0,46.854,0,93.432,0,140.355C470.269,292.844,411.885,292.844,353.058,292.844z M460.304,232.747
			c0.177,0.448,0.354,0.896,0.53,1.344c-2.637,2.52-5.336,4.98-7.9,7.573c-4.858,4.915-5.28,10.975-1.145,15.021
			c4.012,3.922,10.259,3.4,15.081-1.382c8.165-8.096,16.302-16.22,24.39-24.393c5.691-5.75,5.699-11.052-0.07-16.914
			c-8.181-8.314-16.444-16.546-24.743-24.744c-4.564-4.508-10.819-4.833-14.714-0.938c-3.98,3.979-3.684,9.995,0.896,14.672
			c2.725,2.782,5.668,5.349,8.511,8.012c-0.252,0.401-0.504,0.803-0.756,1.204c-1.776,0-3.555-0.001-5.333,0
			c-18.997,0-37.993-0.032-56.989,0.02c-6.884,0.019-10.781,3.434-11.147,9.487c-0.418,6.906,3.494,10.955,11.071,11.003
			c16.162,0.103,32.326,0.034,48.49,0.036C451.085,232.747,455.694,232.747,460.304,232.747z"/>
		<path fill-rule="evenodd" clip-rule="evenodd" d="M460.304,232.747c-4.609,0-9.219,0-13.828,0
			c-16.164-0.002-32.328,0.066-48.49-0.036c-7.577-0.049-11.489-4.098-11.071-11.003c0.366-6.053,4.264-9.468,11.147-9.487
			c18.996-0.052,37.992-0.02,56.989-0.02c1.778-0.001,3.557,0,5.333,0c0.252-0.401,0.504-0.803,0.756-1.204
			c-2.843-2.663-5.786-5.23-8.511-8.012c-4.58-4.677-4.877-10.693-0.896-14.672c3.895-3.894,10.149-3.57,14.714,0.938
			c8.299,8.197,16.562,16.429,24.743,24.744c5.77,5.862,5.762,11.164,0.07,16.914c-8.088,8.173-16.225,16.297-24.39,24.393
			c-4.822,4.782-11.069,5.305-15.081,1.382c-4.136-4.045-3.714-10.106,1.145-15.021c2.564-2.593,5.264-5.053,7.9-7.573
			C460.657,233.644,460.48,233.195,460.304,232.747z"/>
	</g>
</g>
<g id="Layer_2">
</g>
</svg>
