<?xml version="1.0" encoding="utf-8"?>
<!-- Generator: Adobe Illustrator 16.0.0, SVG Export Plug-In . SVG Version: 6.00 Build 0)  -->
<!DOCTYPE svg PUBLIC "-//W3C//DTD SVG 1.1//EN" "http://www.w3.org/Graphics/SVG/1.1/DTD/svg11.dtd">
<svg version="1.1" id="Layer_1" xmlns="http://www.w3.org/2000/svg" xmlns:xlink="http://www.w3.org/1999/xlink" x="0px" y="0px"
	 width="318.35px" height="571.703px" viewBox="0 0 318.35 571.703" enable-background="new 0 0 318.35 571.703"
	 xml:space="preserve">
<g>
	<path fill-rule="evenodd" clip-rule="evenodd" d="M98.232,382.61c-17.864,0-34.838,0.003-51.812-0.002
		c-11.729-0.004-14.698-3-14.699-14.833c-0.003-33.821-0.001-67.643-0.001-101.464c0-1.8,0-3.6,0-5.483
		c-3.402-0.274-6.372-0.305-9.266-0.784C11.451,258.219,3.25,249.389,2.13,238.367c-1.125-11.08,5.106-21.263,15.552-25.313
		c1.7-0.659,3.48-1.123,5.244-1.605c8.791-2.406,8.792-2.397,8.793-11.748c0.001-6.832-0.074-13.664,0.026-20.493
		c0.114-7.743,3.685-11.301,11.376-11.342c11.829-0.062,23.661-0.164,35.485,0.071c3.49,0.069,5.298-1.202,7.102-4.05
		c4-6.316,8.169-12.576,12.83-18.412c6.489-8.127,15.024-12.048,25.71-11.923c23.821,0.278,47.65,0.273,71.472,0
		c10.29-0.118,18.639,3.511,24.981,11.283c4.932,6.041,9.333,12.545,13.61,19.08c1.834,2.801,3.652,4.097,7.142,4.024
		c11.491-0.242,22.99-0.102,34.486-0.087c9.652,0.012,13.081,3.517,13.089,13.343c0.006,8.164,0.089,16.329-0.049,24.491
		c-0.044,2.604,0.672,3.979,3.399,4.429c2.611,0.432,5.149,1.323,7.708,2.056c12.416,3.553,19.674,14.605,18.033,27.437
		c-1.477,11.551-12.109,20.375-24.654,20.458c-1.3,0.009-2.601,0.001-4.437,0.001c0,2.008,0,3.791,0,5.574
		c0,34.487,0.006,68.975-0.004,103.463c-0.003,9.431-3.47,12.838-13.03,12.843c-17.63,0.01-35.259,0.003-53.483,0.003
		c1.338,10.968,2.589,21.482,3.908,31.99c4.876,38.813,9.798,77.621,14.636,116.439c0.596,4.777,1.288,9.629,1.076,14.407
		c-0.618,13.925-12.312,25.677-25.513,26.135c-16.106,0.56-28.724-9.147-30.609-24.023c-5.443-42.938-10.704-85.897-16.051-128.848
		c-1.478-11.868-3.007-23.731-4.541-35.824c-3.411,0-6.506,0-10.151,0c-1.385,10.938-2.802,21.937-4.167,32.941
		c-4.567,36.84-9.118,73.682-13.669,110.523c-0.816,6.608-1.662,13.214-2.388,19.832c-1.808,16.488-15.909,27.958-31.984,25.955
		c-15.854-1.977-26.541-16.782-24.439-33.197c5.623-43.92,11.039-87.868,16.546-131.804
		C96.136,398.754,97.149,391.037,98.232,382.61z M267.899,188.479c-72.188,0-143.89,0-215.534,0c0,57.807,0,115.224,0,172.716
		c72.005,0,143.703,0,215.534,0C267.899,303.477,267.899,246.171,267.899,188.479z"/>
	<path fill-rule="evenodd" clip-rule="evenodd" d="M160.093,1c32.412,0.019,58.815,26.437,58.804,58.835
		c-0.012,32.309-26.614,58.846-58.924,58.778c-32.393-0.067-58.841-26.563-58.794-58.898C101.227,27.308,127.643,0.98,160.093,1z"/>
	<path fill-rule="evenodd" clip-rule="evenodd" fill="#FFFFFF" d="M267.899,188.479c0,57.693,0,114.998,0,172.716
		c-71.831,0-143.529,0-215.534,0c0-57.492,0-114.909,0-172.716C124.009,188.479,195.711,188.479,267.899,188.479z M140.162,285.276
		c0,2.477,0,4.286,0,6.093c0,12.162-0.04,24.324,0.019,36.486c0.028,5.761,2.126,7.899,7.79,7.953
		c8.163,0.077,16.327,0.068,24.49,0.003c5.838-0.048,7.837-1.997,7.881-7.76c0.074-9.662-0.056-19.327,0.06-28.988
		c0.052-4.426-1.092-10.243,1.219-12.845c1.977-2.228,8.105-0.83,12.4-0.924c8.289-0.183,10.8-4.594,6.445-11.667
		c-11.346-18.428-22.733-36.828-34.165-55.201c-3.912-6.288-9.214-6.289-13.184,0.079c-11.449,18.362-22.832,36.766-34.141,55.215
		c-3.697,6.029-0.664,11.355,6.443,11.535C130.058,285.371,134.702,285.276,140.162,285.276z"/>
	<path fill-rule="evenodd" clip-rule="evenodd" d="M140.162,285.276c-5.46,0-10.104,0.095-14.743-0.021
		c-7.107-0.18-10.14-5.505-6.443-11.535c11.309-18.449,22.691-36.853,34.141-55.215c3.97-6.368,9.271-6.367,13.184-0.079
		c11.432,18.374,22.819,36.773,34.165,55.201c4.354,7.073,1.844,11.485-6.445,11.667c-4.295,0.094-10.424-1.304-12.4,0.924
		c-2.311,2.602-1.167,8.418-1.219,12.845c-0.115,9.661,0.015,19.326-0.06,28.988c-0.044,5.763-2.043,7.712-7.881,7.76
		c-8.163,0.065-16.327,0.074-24.49-0.003c-5.664-0.054-7.762-2.192-7.79-7.953c-0.059-12.162-0.019-24.324-0.019-36.486
		C140.162,289.562,140.162,287.753,140.162,285.276z"/>
</g>
</svg>
